<?xml version="1.0" encoding="UTF-8"?>
<svg id="Outline" xmlns="http://www.w3.org/2000/svg" viewBox="0 0 512 512">
  <defs>
    <style>
      .cls-1 {
        fill: #2957a5;
      }
    </style>
  </defs>
  <path class="cls-1" d="M24.6,308.3l82.6,83.4c8.3,8.4,21.8,8.4,30.2.1l.1-.1h0c8.4-8.3,8.4-21.8.1-30.2l-.1-.1-75.9-76.4h435c11.8,0,21.3-9.6,21.3-21.3h0c0-11.8-9.6-21.3-21.3-21.3H60.3l77.2-77.2c7.9-8.2,7.9-21.2,0-29.4h0c-8.3-8.4-21.8-8.4-30.2-.1l-.1.1L24.6,217.9c-25,25-25,65.5,0,90.5v-.1Z"/>
</svg>