<?xml version="1.0" encoding="UTF-8"?>
<svg id="Outline" xmlns="http://www.w3.org/2000/svg" viewBox="0 0 512 512">
  <defs>
    <style>
      .cls-1 {
        fill: #2957a5;
      }
    </style>
  </defs>
  <path class="cls-1" d="M440.2,265v-30.4c0-106-86-192-192-192S56.2,128.6,56.2,234.6v30.4C2.3,288.7-22.2,351.7,1.6,405.6c17,38.6,55.1,63.6,97.3,63.7,23.6,0,42.7-19.1,42.7-42.7v-128c0-23.6-19.1-42.7-42.7-42.7v-21.3c0-82.5,66.9-149.3,149.3-149.3s149.3,66.9,149.3,149.3v21.3c-23.6,0-42.7,19.1-42.7,42.7v128h-64c-11.8,0-21.3,9.6-21.3,21.3s9.6,21.3,21.3,21.3h106.7c58.9-.2,106.5-48.1,106.3-107-.1-42.2-25.1-80.3-63.7-97.3l.1.1ZM98.9,426.7h0c-35.3,0-64-28.7-64-64s28.7-64,64-64v128ZM397.6,426.7v-128c35.3,0,64,28.7,64,64s-28.7,64-64,64Z"/>
</svg>