<?xml version="1.0" encoding="UTF-8"?>
<svg id="Outline" xmlns="http://www.w3.org/2000/svg" viewBox="0 0 512 512">
  <defs>
    <style>
      .cls-1 {
        fill: #2957a5;
      }
    </style>
  </defs>
  <path class="cls-1" d="M395,351.4c0,17.7-14.4,32.1-32.1,32.1s-32.1-14.4-32.1-32.1,14.4-32.1,32.1-32.1,32.1,14.4,32.1,32.1ZM506.4,494.8c-4.2,4.2-9.6,6.3-15.1,6.3s-11-2.1-15.1-6.3l-39-39c-21,15-46.6,23.9-74.2,23.9-70.8,0-128.3-57.6-128.3-128.3s57.6-128.3,128.3-128.3,128.3,57.6,128.3,128.3-8.9,53.3-23.9,74.2l39,39c8.4,8.4,8.4,21.9,0,30.2h0ZM443,369.1c7.1-10.7,7.1-24.7,0-35.5-13.5-20.3-38.9-46.4-80-46.4s-67.8,27.5-81,47.9c-6.3,9.7-6.3,22.8,0,32.5,13.3,20.5,38.9,47.9,81,47.9s73.9-37.2,80-46.4h0ZM234.6,479.7c0,11.8-9.6,21.4-21.4,21.4h-107c-58.9,0-106.9-48-106.9-106.9V94.7C-.7,35.7,47.3-12.3,106.3-12.3h96.6c40,0,77.6,15.6,105.9,43.9l74.5,74.5c19,19,32.6,42.8,39.2,68.8,1.6,6.4.2,13.2-3.8,18.4-4.1,5.2-10.3,8.3-16.9,8.3h-124.3c-35.4,0-64.2-28.8-64.2-64.2V30.9c-3.4-.3-6.9-.5-10.4-.5h-96.6c-35.4,0-64.2,28.8-64.2,64.2v299.6c0,35.4,28.8,64.2,64.2,64.2h107c11.8,0,21.4,9.6,21.4,21.4l-.1-.1ZM256,137.5c0,11.8,9.6,21.4,21.4,21.4h92.8c-4.7-8.2-10.5-15.7-17.2-22.5l-74.5-74.5c-6.8-6.8-14.4-12.6-22.5-17.2v92.9-.1Z"/>
</svg>