<?xml version="1.0" encoding="UTF-8"?>
<svg id="Outline" xmlns="http://www.w3.org/2000/svg" viewBox="0 0 512 512">
  <defs>
    <style>
      .cls-1 {
        fill: #2957a5;
      }
    </style>
  </defs>
  <path class="cls-1" d="M506.23,476.02l-127.3-127.3c74.7-91.4,61.2-226-30.2-300.7C257.33-26.68,122.73-13.18,48.03,78.22c-74.7,91.4-61.2,226,30.2,300.7,78.7,64.3,191.8,64.3,270.5,0l127.3,127.3c8.5,8.2,22,8,30.2-.5,8-8.3,8-21.4,0-29.6v-.1ZM213.83,384.42c-94.3,0-170.7-76.4-170.7-170.7S119.53,43.02,213.83,43.02s170.7,76.4,170.7,170.7c-.1,94.2-76.5,170.6-170.7,170.7h0Z"/>
</svg>