<svg width="1172" height="925" viewBox="0 0 1172 925" fill="none" xmlns="http://www.w3.org/2000/svg">
<path d="M932.482 815.757C686.464 815.758 441.766 815.74 197.068 815.788C168.617 815.794 143.227 809.032 124.425 785.187C110.267 767.232 105.001 746.591 104.984 724.19C104.92 636.12 104.699 548.048 105.26 459.981C105.342 447.013 102.151 441.976 89.0568 443.521C79.9374 444.598 70.5602 443.196 61.3602 443.83C24.0317 446.402 -13.7704 400.659 6.34738 358.078C12.4571 345.146 20.6938 331.953 31.1991 322.663C143.923 222.979 257.464 124.248 370.403 24.8129C408.881 -9.06467 465.887 -7.23117 503.716 27.0937C575.506 92.2333 648.913 155.534 721.604 219.65C724.91 222.567 727.947 225.849 730.813 229.22C738.14 237.836 738.607 247.149 731.881 256.116C725.333 264.849 716.201 268.308 706.267 263.26C698.546 259.336 691.346 253.935 684.764 248.186C612.433 185.017 540.265 121.654 468.06 58.3345C448.479 41.1638 424.244 40.784 404.69 57.7698C306.469 143.091 208.315 228.492 110.136 313.863C93.7738 328.091 77.2621 342.145 61.1326 356.639C56.9631 360.386 52.8497 364.992 50.6611 370.071C43.8206 385.945 49.3707 395.343 66.4142 396.116C84.423 396.933 102.492 396.374 120.535 396.417C143.253 396.47 152.552 405.741 152.564 428.888C152.615 527.24 152.562 625.593 152.567 723.946C152.569 758.066 163.948 769.45 197.758 769.449C516.833 769.43 835.909 769.51 1154.98 769.136C1168.5 769.12 1172.35 773.12 1171.98 786.611C1171.07 819.689 1174.22 815.693 1142.41 815.733C1072.87 815.82 1003.34 815.759 932.482 815.757Z" fill="white"/>
<path d="M539.365 576.61C521.105 629.888 482.036 652.562 430.403 655.357C396.646 657.184 362.735 655.988 328.898 656.453C321.264 656.558 319.096 653.339 319.111 646C319.277 563.401 319.292 480.801 319.103 398.202C319.084 389.948 322.1 387.31 330.037 387.437C361.235 387.935 392.468 387.169 423.64 388.268C501.655 391.019 545.079 435.223 546.653 514.716C547.054 534.961 542.18 555.313 539.365 576.61ZM440.842 607.153C463.713 601.717 479.098 587.583 486.119 564.99C494.377 538.416 494.664 511.46 487.762 484.382C482.733 464.653 472.117 449.523 453.625 441.1C429.498 430.11 403.753 432.262 378.349 433.186C376.107 433.268 372.248 439.369 372.223 442.699C371.821 495.409 371.725 548.125 372.357 600.831C372.4 604.385 378.845 610.9 382.262 610.866C401.08 610.68 419.882 608.883 440.842 607.153ZM327.734 475.113C327.735 452.324 327.996 429.53 327.599 406.749C327.458 398.62 330.129 395.73 338.217 395.9C358.883 396.335 379.564 396.043 400.239 396.042C410.21 396.041 420.182 396.042 430.153 396.042C430.115 395.402 430.076 394.763 430.038 394.124C394.657 394.124 359.276 394.124 325.536 394.124C325.536 480.042 325.536 565.072 325.536 650.023C359.967 650.023 392.474 650.023 424.98 650.023C396.915 648.075 368.842 647.597 340.8 648.32C330.166 648.594 327.425 645.084 327.519 634.634C327.99 582.358 327.734 530.076 327.734 475.113ZM359.343 523.403C359.343 551.861 359.343 580.32 359.343 608.778C360.505 608.747 361.667 608.717 362.829 608.686C362.829 550.921 362.829 493.157 362.829 435.393C361.667 435.391 360.505 435.39 359.343 435.388C359.343 463.832 359.343 492.276 359.343 523.403ZM496.777 528.614C496.777 536.601 496.777 544.589 496.777 552.577C497.937 552.507 499.097 552.436 500.257 552.365C500.257 532.162 500.257 511.959 500.257 491.757C499.097 491.731 497.938 491.706 496.778 491.681C496.778 503.122 496.778 514.563 496.777 528.614Z" fill="white"/>
<path d="M654.866 440.56C654.866 440.56 654.192 441.561 652.67 441.589C645.658 447.456 639.179 452.644 634.921 459.298C629.42 467.895 625.694 477.664 620.12 487.221C617.973 488.791 615.999 490.056 615.982 491.348C615.711 511.257 615.531 531.173 615.864 551.079C615.899 553.145 619.339 555.152 621.659 557.979C624.363 563.834 626.171 569.161 628.957 573.893C632.662 580.183 637.129 586.011 641.269 592.037C643.738 594.511 646.207 596.985 649.251 601.108C662.897 615.065 702.957 622.02 718.463 614.015C723.514 611.407 727.51 606.688 731.989 602.934C731.989 602.934 731.899 602.689 732.956 602.704C746.772 594.895 749.412 581.705 750.259 568.427C751.528 548.547 750.971 548.505 731.491 548.492C717.264 548.482 703.036 548.49 688.693 548.49C688.693 534.735 688.693 523.749 688.693 512.288C724.089 512.288 759.327 512.288 795.254 512.288C795.254 559.741 795.254 605.965 795.254 652.561C780.561 652.561 766.748 652.561 752.631 652.561C752.631 643.321 753.1 634.925 752.37 626.637C752.124 623.844 748.834 621.328 746.936 618.685C745.332 620.323 743.728 621.96 742.125 623.597C741.959 624.086 741.793 624.576 740.369 625.915C734.794 632.644 730.478 638.525 726.161 644.405C726.161 644.405 725.515 645.408 723.944 645.499C691.811 659.082 661.13 658.392 630.681 645.599C622.485 642.155 615.053 636.834 607.27 632.374C607.27 632.374 607.606 632.082 607.526 631.306C604.843 628.374 602.241 626.216 599.639 624.059C599.639 624.059 599.71 624.008 599.787 623.077C598.017 620.109 596.169 618.073 594.322 616.037C594.322 616.037 594.429 615.962 594.426 615.001C585.863 593.786 579.223 573.343 576.475 550.992C572.72 520.453 574.661 490.928 584.227 462.237C589.15 447.472 597.908 434.026 604.934 419.984C605.254 419.191 605.745 418.53 607.882 417.698C613.086 413.712 616.817 410.03 620.548 406.348C620.548 406.348 620.814 406.667 621.636 406.612C624.095 405.96 625.875 405.609 627.349 404.729C653.648 389.038 682.146 386.121 711.651 390.232C727.365 392.421 742.939 395.645 758.576 398.401C758.576 398.401 759.759 398.713 760.234 400.079C767.006 405.794 773.304 410.144 779.602 414.493C779.602 414.493 779.319 414.731 779.361 415.488C782.51 419.435 785.617 422.624 788.724 425.813C788.724 425.813 789.733 426.555 789.725 428.128C788.817 435.231 787.918 440.762 787.018 446.293C787.018 446.293 786.453 447.195 784.96 447.162C781.443 447.88 779.115 448.211 777.442 449.453C766.703 457.422 756.111 464.206 745.516 449.317C745.516 449.317 745.216 449.35 745.262 448.254C743.825 445.113 742.635 442.738 740.815 441.074C719.645 421.714 694.17 427.707 669.771 429.706C664.549 430.134 659.821 436.779 654.866 440.56Z" fill="white"/>
<path d="M1027.6 460.362C1026.53 464.056 1025.45 467.749 1023.2 472.583C1013.65 496.795 1004.84 519.712 997.011 542.972C984.676 579.619 973.004 616.497 960.942 653.615C943.436 653.615 927.185 654.159 911.016 653.233C906.959 653.001 901.392 648.901 899.608 645.088C895.538 636.386 893.39 626.757 890.443 617.511C878.382 579.683 866.654 541.739 854.151 504.062C842.022 467.516 829.094 431.243 816.123 393.712C834.91 393.712 851.55 393.712 868.19 393.712C868.534 394.771 868.879 395.83 868.687 397.968C869.1 400.91 870.049 402.774 871.296 405.675C876.834 423.631 881.933 440.596 887.343 457.459C900.46 498.35 913.673 539.21 927.02 580.025C928.094 583.311 930.488 586.152 932.269 589.2C933.631 589.12 934.994 589.04 936.356 588.96C940.059 577.416 943.801 565.884 947.459 554.325C958.279 520.133 968.881 485.87 979.937 451.757C986.046 432.909 992.892 414.308 1000.77 395.714C1007.35 395.888 1012.56 395.946 1017.77 395.996C1027.51 396.088 1038.01 393.755 1044.45 405.574C1041.5 417.386 1038.53 428.165 1035.56 438.943C1034.45 441.753 1033.34 444.562 1031.22 448.507C1029.33 453.215 1028.47 456.789 1027.6 460.362Z" fill="white"/>
<path d="M868.407 392.705C851.554 393.712 834.914 393.712 816.126 393.712C829.097 431.243 842.026 467.516 854.154 504.062C866.658 541.739 878.385 579.683 890.446 617.511C893.394 626.757 895.541 636.386 899.612 645.088C901.395 648.901 906.963 653.001 911.02 653.233C927.189 654.159 943.44 653.615 960.945 653.615C973.008 616.497 984.68 579.619 997.014 542.972C1004.84 519.712 1013.66 496.795 1022.94 473.513C1017.2 495.68 1010.9 518.176 1003.81 540.411C993.731 572.032 982.515 603.288 972.851 635.035C966.431 656.126 965.811 657.543 944.48 657.531C933.054 657.525 921.493 658.605 910.261 657.113C904.934 656.405 897.293 651.866 895.707 647.277C880.385 602.94 866.289 558.169 851.52 513.633C838.977 475.814 826.243 438.056 813.074 400.459C809.553 390.407 811.414 386.06 822.237 386.273C834.098 386.507 845.989 385.9 857.818 386.56C861.5 386.766 865.024 389.903 868.407 392.705Z" fill="white"/>
<path d="M999.409 395.595C992.895 414.308 986.049 432.909 979.94 451.757C968.885 485.87 958.282 520.133 947.462 554.325C943.805 565.884 940.063 577.416 936.359 588.96C934.997 589.04 933.634 589.12 932.272 589.2C930.491 586.152 928.098 583.311 927.023 580.025C913.676 539.21 900.464 498.35 887.346 457.459C881.936 440.596 876.837 423.631 871.523 404.704C871.528 401.373 871.607 400.049 871.685 398.726C875.151 406.849 879.257 414.76 881.96 423.137C889.488 446.468 896.216 470.065 903.664 493.424C912.936 522.504 922.612 551.451 933.037 583.276C938.731 565.874 943.647 551.077 948.411 536.23C954.287 517.915 960.121 499.585 965.816 481.211C971.668 462.332 977.316 443.387 983.08 424.48C986.162 414.369 988.534 403.926 992.783 394.344C994.533 390.4 1000.22 386.115 1004.38 385.81C1018.37 384.784 1032.49 385.232 1046.55 385.618C1054.29 385.83 1057.6 388.48 1053.5 397.521C1048.81 407.875 1046.44 419.3 1042.7 430.126C1041.62 433.229 1039.26 435.872 1036.53 438.835C1038.53 428.165 1041.5 417.386 1044.76 404.883C1044.81 402.218 1044.59 401.275 1045.26 399.433C1050.01 390.045 1044.18 389.737 1038.68 389.726C1027.89 389.702 1017.11 390.004 1005.7 389.96C1004.65 389.909 1004.24 390.07 1002.95 390.322C1001.46 391.359 1000.84 392.305 999.799 393.757C999.373 394.263 999.409 395.595 999.409 395.595Z" fill="white"/>
<path d="M743.364 623.572C743.728 621.96 745.332 620.323 746.936 618.685C748.834 621.328 752.124 623.844 752.37 626.637C753.1 634.925 752.631 643.321 752.631 652.561C766.748 652.561 780.561 652.561 795.254 652.561C795.254 605.965 795.254 559.741 795.254 512.288C759.327 512.288 724.089 512.288 688.693 512.288C688.693 523.749 688.693 534.735 688.693 548.49C703.036 548.49 717.264 548.482 731.491 548.492C750.971 548.505 751.528 548.547 750.259 568.427C749.412 581.705 746.772 594.895 733.077 602.75C736.693 589.646 741.725 576.656 745.614 563.322C747.901 555.482 743.52 551.939 735.592 552.108C722.414 552.387 709.223 552.066 696.046 552.383C686.499 552.612 682.853 548.614 683.141 538.698C684.211 501.891 677.692 507.251 714.645 506.959C738.813 506.768 762.991 507.281 787.148 506.723C796.985 506.496 800.103 509.839 799.99 519.862C799.524 561.369 799.579 602.888 799.972 644.397C800.058 653.532 797.497 657.681 788.107 657.22C778.463 656.747 768.757 656.74 759.116 657.249C750.185 657.721 747.894 653.636 747.886 645.207C747.88 637.986 745.778 630.766 743.364 623.572Z" fill="white"/>
<path d="M604.055 420.115C597.912 434.026 589.154 447.471 584.231 462.237C574.665 490.928 572.724 520.453 576.479 550.992C579.227 573.343 585.868 593.786 594.389 615.053C589.231 606.657 582.202 597.814 579.313 587.746C563.707 533.355 563.291 480.091 594.701 430.303C597.022 426.623 600.326 423.583 604.055 420.115Z" fill="white"/>
<path d="M758.282 397.525C742.941 395.645 727.365 392.421 711.651 390.232C682.146 386.121 653.648 389.038 627.349 404.729C625.875 405.609 624.097 405.96 621.479 406.48C631.346 400.396 641.574 392.237 653.161 388.784C688.758 378.178 724.061 380.068 758.282 397.525Z" fill="white"/>
<path d="M607.391 633.277C615.056 636.834 622.488 642.155 630.684 645.599C661.133 658.392 691.814 659.081 723.395 645.711C714.9 650.358 705.778 657.283 695.797 658.969C663 664.509 632.51 658.681 607.391 633.277Z" fill="white"/>
<path d="M655.859 440.542C659.821 436.779 664.549 430.134 669.771 429.706C694.17 427.707 719.645 421.714 740.815 441.074C742.635 442.738 743.825 445.113 745.299 448.106C717.609 426.979 687.924 426.332 655.859 440.542Z" fill="white"/>
<path d="M730.993 603.051C727.512 606.688 723.514 611.407 718.463 614.015C702.957 622.02 662.9 615.065 649.695 601.869C676.023 614.962 702.766 618.298 730.993 603.051Z" fill="white"/>
<path d="M621.205 486.928C625.695 477.664 629.42 467.895 634.921 459.298C639.179 452.644 645.658 447.456 652.099 441.76C634.157 460.338 628.286 484.132 624.796 509.505C622.73 506.42 621.967 503.274 621.214 499.043C621.217 494.282 621.211 490.605 621.205 486.928Z" fill="white"/>
<path d="M641.253 591.056C637.132 586.011 632.665 580.183 628.96 573.893C626.174 569.161 624.366 563.834 621.683 556.862C621.23 551.301 621.219 547.649 621.726 543.351C623.025 539.577 623.804 536.449 624.584 533.32C630.134 552.238 635.684 571.157 641.253 591.056Z" fill="white"/>
<path d="M745.572 450.264C756.113 464.206 766.703 457.422 777.442 449.453C779.115 448.211 781.445 447.88 784.459 447.319C777.7 452.972 770.505 459.661 762.065 463.591C751.112 468.69 750.125 456.824 745.572 450.264Z" fill="white"/>
<path d="M624.808 532.086C623.803 536.449 623.023 539.577 621.582 542.056C621.015 527.646 621.11 513.887 621.205 500.127C621.968 503.274 622.731 506.42 624.046 510.174C624.744 517.472 624.888 524.161 624.808 532.086Z" fill="white"/>
<path d="M727.028 644.426C730.482 638.525 734.799 632.644 739.904 626.528C736.425 632.344 732.158 638.396 727.028 644.426Z" fill="white"/>
<path d="M787.959 446.358C787.92 440.762 788.82 435.231 789.916 428.731C796.051 434.408 803.079 441.128 787.959 446.358Z" fill="white"/>
<path d="M779.479 413.598C773.306 410.144 767.008 405.794 760.609 400.57C766.79 404.031 773.072 408.366 779.479 413.598Z" fill="white"/>
<path d="M619.637 406.362C616.817 410.03 613.086 413.712 608.413 417.377C611.222 413.699 614.974 410.038 619.637 406.362Z" fill="white"/>
<path d="M788.806 424.951C785.622 422.624 782.515 419.435 779.483 415.345C782.666 417.659 785.774 420.874 788.806 424.951Z" fill="white"/>
<path d="M1028.52 460.086C1028.47 456.789 1029.34 453.215 1030.99 449.41C1030.99 452.722 1030.22 456.266 1028.52 460.086Z" fill="white"/>
<path d="M599.71 624.939C602.244 626.216 604.847 628.373 607.385 631.477C604.808 630.222 602.293 628.021 599.71 624.939Z" fill="white"/>
<path d="M594.33 616.933C596.171 618.073 598.019 620.109 599.762 623.111C597.884 621.995 596.11 619.912 594.33 616.933Z" fill="white"/>
<path d="M871.174 398.43C871.605 400.049 871.526 401.373 871.224 403.667C870.051 402.774 869.102 400.91 868.856 398.79C869.56 398.533 870.665 398.134 871.174 398.43Z" fill="white"/>
<path d="M327.733 476.454C327.733 530.076 327.99 582.358 327.519 634.634C327.425 645.084 330.166 648.594 340.8 648.32C368.842 647.597 396.915 648.075 424.98 650.023C392.474 650.023 359.967 650.023 325.536 650.023C325.536 565.072 325.536 480.042 325.536 394.124C359.276 394.124 394.657 394.124 430.038 394.124C430.076 394.763 430.115 395.402 430.153 396.042C420.182 396.042 410.21 396.041 400.239 396.042C379.564 396.043 358.883 396.335 338.217 395.9C330.129 395.73 327.458 398.62 327.599 406.749C327.996 429.53 327.734 452.324 327.733 476.454Z" fill="white"/>
<path d="M359.343 522.062C359.343 492.276 359.343 463.832 359.343 435.388C360.505 435.39 361.667 435.391 362.829 435.393C362.829 493.157 362.829 550.921 362.829 608.686C361.667 608.717 360.505 608.747 359.343 608.778C359.343 580.32 359.343 551.861 359.343 522.062Z" fill="white"/>
<path d="M496.777 527.309C496.777 514.563 496.778 503.122 496.778 491.681C497.938 491.706 499.097 491.731 500.257 491.757C500.257 511.959 500.257 532.162 500.257 552.365C499.097 552.436 497.937 552.507 496.777 552.577C496.777 544.589 496.776 536.602 496.777 527.309Z" fill="white"/>
<path d="M621.214 499.043C621.109 513.887 621.015 527.646 621.063 542.701C621.218 547.649 621.23 551.301 621.221 556.069C619.341 555.152 615.899 553.145 615.864 551.079C615.531 531.173 615.711 511.257 615.982 491.348C615.999 490.056 617.973 488.791 620.12 487.221C621.21 490.605 621.217 494.282 621.214 499.043Z" fill="white"/>
<path d="M1044.36 400.333C1044.59 401.275 1044.81 402.218 1044.74 403.85C1038.01 393.755 1027.52 396.088 1017.77 395.996C1012.56 395.946 1007.35 395.888 1000.77 395.714C999.409 395.595 999.372 394.263 1000.6 393.524C1002.49 391.934 1003.16 391.082 1003.82 390.231C1004.24 390.07 1004.65 389.909 1006.42 390.84C1016.45 392.383 1025.22 392.193 1033.75 393.579C1037.54 394.195 1040.84 397.984 1044.36 400.333Z" fill="white"/>
<path d="M1045.26 399.433C1040.84 397.984 1037.54 394.195 1033.75 393.579C1025.22 392.193 1016.45 392.383 1007.05 391.051C1017.11 390.004 1027.89 389.702 1038.68 389.726C1044.18 389.737 1050.01 390.045 1045.26 399.433Z" fill="white"/>
<path d="M1002.95 390.322C1003.16 391.082 1002.49 391.934 1001.02 393.018C1000.84 392.305 1001.46 391.359 1002.95 390.322Z" fill="white"/>
<path d="M324.573 878.871C330.142 894.84 319.897 891.697 311.009 891.7C311.009 886.771 311.009 882.488 311.009 876.416C315.719 877.065 319.773 877.624 324.573 878.871Z" fill="#DFE5ED"/>
<path d="M467.761 892.084C464.828 887.866 463.016 883.672 461.204 879.477C462.41 878.054 463.616 876.63 464.822 875.206C469.504 877.87 474.185 880.534 478.867 883.198C475.539 886.168 472.211 889.137 467.761 892.084Z" fill="#E7ECF2"/>
<path d="M181.753 872.626L167.492 924.48H155.425L145.845 887.558L135.825 924.48L123.831 924.554L110.082 872.626H121.052L130.048 912.891L140.433 872.626H151.841L161.641 912.668L170.71 872.626H181.753Z" fill="white"/>
<path d="M230.783 872.626V924.48H220.545V902.416H198.678V924.48H188.439V872.626H198.678V893.947H220.545V872.626H230.783Z" fill="white"/>
<path d="M251.1 881.02V894.021H268.286V902.267H251.1V916.011H270.48V924.48H240.861V872.551H270.48V881.02H251.1Z" fill="white"/>
<path d="M306.113 924.48L294.851 904.273H290.024V924.48H279.785V872.626H298.946C302.895 872.626 306.26 873.344 309.039 874.78C311.818 876.167 313.89 878.074 315.255 880.5C316.669 882.878 317.376 885.552 317.376 888.524C317.376 891.941 316.401 895.036 314.451 897.81C312.5 900.534 309.599 902.416 305.748 903.456L317.961 924.48H306.113ZM290.024 896.473H298.58C301.36 896.473 303.432 895.804 304.797 894.467C306.162 893.08 306.845 891.173 306.845 888.747C306.845 886.369 306.162 884.537 304.797 883.249C303.432 881.912 301.36 881.243 298.58 881.243H290.024V896.473Z" fill="white"/>
<path d="M336.875 881.02V894.021H354.062V902.267H336.875V916.011H356.256V924.48H326.637V872.551H356.256V881.02H336.875Z" fill="white"/>
<path d="M400.832 872.626C406.195 872.626 410.9 873.691 414.947 875.82C419.042 877.95 422.187 880.996 424.381 884.958C426.624 888.87 427.745 893.427 427.745 898.627C427.745 903.827 426.624 908.384 424.381 912.296C422.187 916.159 419.042 919.156 414.947 921.285C410.9 923.415 406.195 924.48 400.832 924.48H382.987V872.626H400.832ZM400.466 915.639C405.829 915.639 409.973 914.154 412.899 911.182C415.824 908.21 417.287 904.025 417.287 898.627C417.287 893.229 415.824 889.019 412.899 885.998C409.973 882.927 405.829 881.392 400.466 881.392H393.226V915.639H400.466Z" fill="white"/>
<path d="M461.738 924.48L450.475 904.273H445.648V924.48H435.409V872.626H454.57C458.52 872.626 461.884 873.344 464.663 874.78C467.442 876.167 469.514 878.074 470.879 880.5C472.293 882.878 473 885.552 473 888.524C473 891.941 472.025 895.036 470.075 897.81C468.125 900.534 465.224 902.416 461.372 903.456L473.585 924.48H461.738ZM445.648 896.473H454.205C456.984 896.473 459.056 895.804 460.421 894.467C461.786 893.08 462.469 891.173 462.469 888.747C462.469 886.369 461.786 884.537 460.421 883.249C459.056 881.912 456.984 881.243 454.205 881.243H445.648V896.473Z" fill="white"/>
<path d="M492.5 881.02V894.021H509.686V902.267H492.5V916.011H511.88V924.48H482.261V872.551H511.88V881.02H492.5Z" fill="white"/>
<path d="M552.486 914.599H532.155L528.791 924.48H518.04L536.397 872.551H548.317L566.674 924.48H555.85L552.486 914.599ZM549.707 906.279L542.32 884.586L534.934 906.279H549.707Z" fill="white"/>
<path d="M629.191 872.626V924.48H618.952V890.752L605.276 924.48H597.523L583.774 890.752V924.48H573.536V872.626H585.164L601.4 911.182L617.635 872.626H629.191Z" fill="white"/>
<path d="M656.939 925C653.379 925 650.162 924.381 647.285 923.143C644.457 921.905 642.214 920.122 640.557 917.794C638.899 915.466 638.046 912.717 637.997 909.548H648.967C649.113 911.677 649.845 913.361 651.161 914.599C652.526 915.838 654.379 916.457 656.719 916.457C659.108 916.457 660.985 915.887 662.351 914.748C663.716 913.559 664.398 912.024 664.398 910.142C664.398 908.607 663.935 907.344 663.009 906.353C662.082 905.363 660.912 904.595 659.498 904.05C658.133 903.456 656.232 902.812 653.794 902.119C650.478 901.128 647.773 900.162 645.676 899.221C643.628 898.231 641.849 896.77 640.337 894.838C638.875 892.857 638.143 890.232 638.143 886.964C638.143 883.893 638.899 881.219 640.41 878.94C641.922 876.662 644.043 874.929 646.773 873.74C649.503 872.502 652.624 871.883 656.134 871.883C661.4 871.883 665.666 873.195 668.933 875.82C672.248 878.396 674.076 882.011 674.418 886.666H663.155C663.058 884.884 662.302 883.423 660.888 882.283C659.523 881.095 657.694 880.5 655.403 880.5C653.404 880.5 651.795 881.02 650.576 882.061C649.406 883.101 648.821 884.611 648.821 886.592C648.821 887.979 649.26 889.143 650.137 890.084C651.064 890.975 652.185 891.718 653.501 892.313C654.867 892.857 656.768 893.501 659.206 894.244C662.521 895.235 665.227 896.225 667.324 897.216C669.42 898.206 671.224 899.692 672.736 901.673C674.247 903.654 675.003 906.254 675.003 909.473C675.003 912.247 674.296 914.822 672.882 917.2C671.468 919.577 669.396 921.484 666.666 922.92C663.935 924.307 660.693 925 656.939 925Z" fill="white"/>
<path d="M732.827 872.626V881.02H711.545V894.318H727.854V902.565H711.545V924.48H701.306V872.626H732.827Z" fill="white"/>
<path d="M750.326 872.626V924.48H740.087V872.626H750.326Z" fill="white"/>
<path d="M804.103 924.48H793.864L770.68 888.895V924.48H760.442V872.551H770.68L793.864 908.211V872.551H804.103V924.48Z" fill="white"/>
<path d="M832.066 872.626C837.429 872.626 842.134 873.691 846.181 875.82C850.276 877.95 853.421 880.996 855.615 884.958C857.858 888.87 858.979 893.427 858.979 898.627C858.979 903.827 857.858 908.384 855.615 912.296C853.421 916.159 850.276 919.156 846.181 921.285C842.134 923.415 837.429 924.48 832.066 924.48H814.221V872.626H832.066ZM831.7 915.639C837.063 915.639 841.207 914.154 844.133 911.182C847.058 908.21 848.521 904.025 848.521 898.627C848.521 893.229 847.058 889.019 844.133 885.998C841.207 882.927 837.063 881.392 831.7 881.392H824.46V915.639H831.7Z" fill="white"/>
<path d="M915.371 914.599H895.04L891.676 924.48H880.925L899.282 872.551H911.202L929.559 924.48H918.735L915.371 914.599ZM912.592 906.279L905.206 884.586L897.819 906.279H912.592Z" fill="white"/>
<path d="M996.192 872.626V924.48H985.953V902.416H964.086V924.48H953.847V872.626H964.086V893.947H985.953V872.626H996.192Z" fill="white"/>
<path d="M1029.96 925C1025.19 925 1020.8 923.861 1016.8 921.583C1012.8 919.304 1009.63 916.159 1007.29 912.148C1004.95 908.087 1003.78 903.505 1003.78 898.404C1003.78 893.353 1004.95 888.821 1007.29 884.809C1009.63 880.748 1012.8 877.578 1016.8 875.3C1020.8 873.022 1025.19 871.883 1029.96 871.883C1034.79 871.883 1039.18 873.022 1043.13 875.3C1047.13 877.578 1050.27 880.748 1052.56 884.809C1054.9 888.821 1056.07 893.353 1056.07 898.404C1056.07 903.505 1054.9 908.087 1052.56 912.148C1050.27 916.159 1047.13 919.304 1043.13 921.583C1039.13 923.861 1034.74 925 1029.96 925ZM1029.96 915.714C1033.04 915.714 1035.74 915.02 1038.08 913.634C1040.42 912.197 1042.25 910.167 1043.57 907.542C1044.88 904.917 1045.54 901.871 1045.54 898.404C1045.54 894.937 1044.88 891.916 1043.57 889.341C1042.25 886.716 1040.42 884.71 1038.08 883.323C1035.74 881.937 1033.04 881.243 1029.96 881.243C1026.89 881.243 1024.16 881.937 1021.77 883.323C1019.43 884.71 1017.61 886.716 1016.29 889.341C1014.97 891.916 1014.31 894.937 1014.31 898.404C1014.31 901.871 1014.97 904.917 1016.29 907.542C1017.61 910.167 1019.43 912.197 1021.77 913.634C1024.16 915.02 1026.89 915.714 1029.96 915.714Z" fill="white"/>
<path d="M1119.35 872.626V924.48H1109.11V890.752L1095.43 924.48H1087.68L1073.93 890.752V924.48H1063.69V872.626H1075.32L1091.56 911.182L1107.79 872.626H1119.35Z" fill="white"/>
<path d="M1139.71 881.02V894.021H1156.89V902.267H1139.71V916.011H1159.09V924.48H1129.47V872.551H1159.09V881.02H1139.71Z" fill="white"/>
</svg>
