<?xml version="1.0" encoding="UTF-8"?>
<svg id="Layer_1" data-name="Layer 1" xmlns="http://www.w3.org/2000/svg" viewBox="0 0 1000 230.5">
  <defs>
    <style>
      .cls-1 {
        fill-rule: evenodd;
      }

      .cls-1, .cls-2 {
        fill: #fff;
      }
    </style>
  </defs>
  <g id="Layer_1-2" data-name="Layer_1">
    <g id="_105553276380864" data-name=" 105553276380864">
      <path class="cls-1" d="M116.5,19.07h23.67l47.53,82.32-12.03,20.83,23.38,40.49,23.87-.3,11.75,20.36-12.45,21.57h-93.67l-12.17-21.08h-47.09l-11.83,20.48h-24.14l-11.72-20.3,47.28-81.9h24.06l24.11-41.77-12.03-20.84,11.47-19.86h0ZM116.46,101.18h24.51l23.43,40.58-12.09,20.93h-47.8l-11.7-20.27,23.65-41.24h0Z"/>
      <path class="cls-2" d="M605.47,177.05v26.77h10.86c8.11,0,13.96-5.66,13.96-13.38s-5.81-13.38-13.84-13.38h-10.98ZM609.99,181.1h6.39c5.28,0,9.37,3.9,9.37,9.37s-3.98,9.29-9.18,9.29h-6.58v-18.66h0ZM642.15,183.32c-6.04.04-10.29,4.21-10.29,10.36s4.13,10.29,10.4,10.29c3.52,0,6.42-1.26,8.41-3.44l-2.33-2.49c-1.49,1.53-3.52,2.37-5.74,2.37-3.21,0-5.62-1.95-6.31-5.09h15.37c.54-7.34-2.37-12.01-9.52-12.01h0ZM636.23,192.12c.5-3.25,2.75-5.28,5.97-5.28s5.51,1.99,5.66,5.28h-11.63ZM670.3,180.3c1.45,0,2.56-1.11,2.56-2.64s-1.11-2.68-2.56-2.68-2.56,1.11-2.56,2.68,1.11,2.64,2.56,2.64ZM655.85,184.2h-2.68v3.29h2.68v16.33h4.36v-16.33h5.32v-3.29h-5.32v-2.37c0-1.99,1.19-2.71,2.75-2.71,1.07,0,2.33.34,3.52.88l.15-3.82c-1.07-.61-2.41-.92-3.79-.92-3.4,0-7,2.14-7,7v1.95h0ZM668.13,183.48v20.34h4.36v-20.34h-4.36ZM689.81,183.32c-3.44,0-6.04,1.22-7.5,4.05v-3.9h-4.4v20.34h4.4v-10.82c.31-3.17,2.41-5.51,5.77-5.55,3.06,0,4.89,1.87,4.89,4.93v11.43h4.4v-12.66c0-4.86-2.83-7.84-7.57-7.84h0ZM710.58,183.32c-6.04.04-10.29,4.21-10.29,10.36s4.13,10.29,10.4,10.29c3.52,0,6.42-1.26,8.41-3.44l-2.33-2.49c-1.49,1.53-3.52,2.37-5.74,2.37-3.21,0-5.62-1.95-6.31-5.09h15.37c.54-7.34-2.37-12.01-9.52-12.01h0ZM704.66,192.12c.5-3.25,2.75-5.28,5.97-5.28s5.51,1.99,5.66,5.28h-11.63ZM743.02,175.44h-4.4v11.55c-1.49-2.37-3.94-3.71-7.23-3.71-5.74,0-9.67,4.17-9.67,10.29s3.9,10.44,9.75,10.44c3.25,0,5.7-1.3,7.15-3.67v3.48h4.4v-28.38h0ZM732.39,200.34c-3.71,0-6.23-2.75-6.27-6.62.04-3.9,2.6-6.69,6.27-6.69s6.23,2.75,6.23,6.69-2.56,6.62-6.23,6.62ZM770.21,183.32c-3.17,0-5.62,1.3-7.11,3.67v-11.55h-4.4v28.38h4.4v-3.52c1.49,2.37,3.94,3.67,7.19,3.67,5.81,0,9.64-4.17,9.64-10.25s-3.94-10.4-9.71-10.4h0ZM769.29,200.23c-3.63,0-6.19-2.71-6.19-6.65s2.56-6.58,6.19-6.58,6.2,2.79,6.2,6.58-2.56,6.65-6.2,6.65ZM799.93,183.48h-4.4l-5.66,15.41-6.08-15.41h-4.55l8.41,20.04-.69,1.53c-.69,1.53-1.76,2.26-3.1,2.26-.92,0-1.68-.31-2.64-.99l-1.87,3.4c1.42,1.19,2.87,1.72,4.7,1.72,3.06,0,5.35-1.61,6.62-4.82l9.25-23.14h0ZM860.74,183.48h-4.4v10.02c0,3.56-2.07,6.27-5.58,6.35-2.94,0-4.74-1.87-4.74-4.93v-11.43h-4.4v12.66c0,4.86,2.79,7.84,7.46,7.84,3.33-.04,5.89-1.3,7.27-4.13v3.98h4.4v-20.34h0ZM878.39,203.82h4.33l-.04-13.35c-.04-4.47-2.99-7.15-8.23-7.15-3.86,0-5.93.88-8.76,2.56l1.8,3.06c2.03-1.38,4.05-2.07,6-2.07,3.22,0,4.86,1.53,4.86,4.09v.61h-6.16c-4.9.04-7.69,2.41-7.69,6.12s2.75,6.31,7.15,6.31c2.95,0,5.28-.88,6.74-2.68v2.49h0ZM872.57,200.53c-2.45,0-3.94-1.19-3.94-3.02,0-1.95,1.34-2.71,4.21-2.71h5.51v1.87c-.23,2.22-2.64,3.86-5.78,3.86h0ZM892.11,203.82v-28.38h-4.4v28.38h4.4ZM899.92,174.99c-1.45,0-2.56,1.11-2.56,2.68s1.11,2.64,2.56,2.64,2.56-1.11,2.56-2.64-1.11-2.68-2.56-2.68ZM902.1,203.82v-20.34h-4.36v20.34h4.36ZM917.94,199.16c-1.19.57-2.14.88-3.06.88-1.38,0-2.18-.65-2.18-2.75v-9.75h6v-3.29h-6v-5.58h-4.36v5.58h-2.87v3.29h2.87v10.55c0,4.17,2.64,5.93,5.7,5.93,1.72,0,3.4-.54,5.01-1.49l-1.11-3.36h0ZM939.28,183.48h-4.4l-5.66,15.41-6.08-15.41h-4.55l8.41,20.04-.69,1.53c-.69,1.53-1.76,2.26-3.1,2.26-.92,0-1.68-.31-2.64-.99l-1.87,3.4c1.42,1.19,2.87,1.72,4.7,1.72,3.06,0,5.35-1.61,6.62-4.82l9.25-23.14h0ZM837.99,203.59c-1.76,1.38-3.52,2.22-4.93,2.22-1.53,0-3.02-.92-4.47-2.49,5.7-1.76,9.64-6.77,9.64-12.89,0-7.65-6.2-13.5-14.19-13.5s-14.19,5.81-14.19,13.5,6.16,13.54,14.15,13.58c2.14,3.6,5.16,5.7,8.53,5.7,2.49,0,5.2-1.11,7.27-2.94l-1.8-3.17h0ZM814.43,190.44c0-5.32,4.36-9.45,9.64-9.45s9.52,4.13,9.52,9.45-4.28,9.52-9.52,9.52-9.64-4.21-9.64-9.52Z"/>
      <path class="cls-2" d="M360.61,158.81h-22.29v-6.4c-5.04,3.3-10.34,5.82-15.9,7.53-5.56,1.71-11.5,2.55-17.84,2.55-15.51,0-28.69-4.98-39.55-14.9-10.86-9.95-16.29-21.94-16.29-35.99s5.43-25.85,16.29-35.8c10.86-9.92,24.04-14.9,39.55-14.9,12.41,0,23.65,3.36,33.73,10.08v-6.4h22.29v94.22h0ZM338.31,111.61c0-8.37-3.3-15.51-9.89-21.46-6.59-5.91-14.54-8.88-23.85-8.88s-17.06,2.97-23.65,8.88c-6.59,5.95-9.89,13.09-9.89,21.46s3.23,15.7,9.69,21.65c6.46,5.91,14.41,8.89,23.84,8.89s17.25-2.97,23.85-8.89c6.59-5.95,9.89-13.15,9.89-21.65Z"/>
      <path class="cls-2" d="M476.44,158.81h-22.3v-6.4c-5.04,3.3-10.34,5.82-15.9,7.53-5.56,1.71-11.5,2.55-17.84,2.55-15.51,0-28.69-4.98-39.55-14.9-10.86-9.95-16.29-21.94-16.29-35.99s5.43-25.85,16.29-35.8c10.86-9.92,24.04-14.9,39.55-14.9,12.41,0,23.65,3.36,33.73,10.08v-6.4h22.3v94.22h0ZM454.14,111.61c0-8.37-3.3-15.51-9.89-21.46-6.59-5.91-14.54-8.88-23.85-8.88s-17.06,2.97-23.65,8.88c-6.59,5.95-9.89,13.09-9.89,21.46s3.23,15.7,9.69,21.65c6.46,5.91,14.41,8.89,23.84,8.89s17.25-2.97,23.85-8.89c6.59-5.95,9.89-13.15,9.89-21.65Z"/>
      <path class="cls-2" d="M823.88,158.81h-22.29v-6.4c-5.04,3.3-10.34,5.82-15.9,7.53-5.56,1.71-11.5,2.55-17.84,2.55-15.51,0-28.69-4.98-39.55-14.9-10.86-9.95-16.29-21.94-16.29-35.99s5.43-25.85,16.29-35.8c10.86-9.92,24.04-14.9,39.55-14.9,12.41,0,23.65,3.36,33.73,10.08v-6.4h22.29v94.22h0ZM801.58,111.61c0-8.37-3.3-15.51-9.89-21.46-6.59-5.91-14.54-8.88-23.85-8.88s-17.06,2.97-23.65,8.88c-6.59,5.95-9.89,13.09-9.89,21.46s3.23,15.7,9.69,21.65c6.46,5.91,14.41,8.89,23.85,8.89s17.25-2.97,23.85-8.89c6.59-5.95,9.89-13.15,9.89-21.65Z"/>
      <path class="cls-2" d="M939.28,158.81h-22.29v-6.4c-5.04,3.3-10.34,5.82-15.9,7.53-5.56,1.71-11.5,2.55-17.84,2.55-15.51,0-28.69-4.98-39.55-14.9-10.86-9.95-16.28-21.94-16.28-35.99s5.43-25.85,16.28-35.8c10.86-9.92,24.04-14.9,39.55-14.9,12.41,0,23.65,3.36,33.73,10.08v-6.4h22.29v94.22h0ZM916.99,111.61c0-8.37-3.3-15.51-9.89-21.46-6.59-5.91-14.54-8.88-23.85-8.88s-17.06,2.97-23.65,8.88c-6.59,5.95-9.89,13.09-9.89,21.46s3.23,15.7,9.69,21.65c6.46,5.91,14.41,8.89,23.85,8.89s17.25-2.97,23.85-8.89c6.59-5.95,9.89-13.15,9.89-21.65Z"/>
      <polygon class="cls-1" points="491.72 158.35 518.58 158.35 549.52 119.93 553.58 98.5 536.59 102.9 507.43 64.49 480.57 64.49 517.25 112.87 528.36 112.88 491.72 158.35"/>
      <polygon class="cls-1" points="707.99 64.49 681.13 64.49 650.19 102.9 653.33 122.45 663.12 119.93 692.28 158.35 719.13 158.35 682.45 109.97 671.34 109.96 707.99 64.49"/>
      <polygon class="cls-1" points="605.32 158.35 632.18 158.35 663.12 119.93 621.03 64.49 594.17 64.49 630.85 112.87 641.96 112.88 605.32 158.35"/>
      <path class="cls-2" d="M953.29,51.36v13.29h-3.68v-13.29h-4.67v-3.18h13.01v3.18h-4.67ZM974.72,54.28l-4.45,9h-2.19l-4.43-9v10.37h-3.68v-16.47h4.97l4.24,9.05,4.27-9.05h4.95v16.47h-3.68v-10.37h0Z"/>
      <polygon class="cls-1" points="594.38 64.49 567.53 64.49 536.59 102.9 578.67 158.35 605.53 158.35 568.85 109.97 557.74 109.96 594.38 64.49"/>
    </g>
  </g>
</svg>