<?xml version="1.0" encoding="UTF-8"?>
<svg id="Layer_1" data-name="Layer 1" xmlns="http://www.w3.org/2000/svg" viewBox="0 0 1024 1024">
  <defs>
    <style>
      .cls-1, .cls-2 {
        fill-rule: evenodd;
      }

      .cls-1, .cls-3 {
        fill: #373535;
      }

      .cls-2 {
        fill: #2957a5;
      }

      .cls-4 {
        fill: #fff;
      }
    </style>
  </defs>
  <rect class="cls-4" width="1024" height="1024"/>
  <g id="Layer_1-2" data-name="Layer_1">
    <g id="_105553276380864" data-name=" 105553276380864">
      <path class="cls-2" d="M398.05,481.67h7.47l14.99,25.96-3.79,6.57,7.37,12.77,7.53-.09,3.71,6.42-3.93,6.8h-29.54l-3.84-6.65h-14.85l-3.73,6.46h-7.61l-3.7-6.4,14.91-25.83h7.59l7.61-13.17-3.79-6.57,3.62-6.26h0ZM398.03,507.56h7.73l7.39,12.8-3.81,6.6h-15.08l-3.69-6.39,7.46-13.01h0Z"/>
      <path class="cls-3" d="M552.27,531.49v8.44h3.43c2.56,0,4.4-1.79,4.4-4.22s-1.83-4.22-4.37-4.22h-3.46ZM553.69,532.77h2.01c1.66,0,2.96,1.23,2.96,2.95s-1.25,2.93-2.89,2.93h-2.07v-5.89h0ZM563.83,533.47c-1.91.01-3.24,1.33-3.24,3.27s1.3,3.24,3.28,3.24c1.11,0,2.03-.4,2.65-1.09l-.74-.78c-.47.48-1.11.75-1.81.75-1.01,0-1.77-.62-1.99-1.6h4.85c.17-2.32-.75-3.79-3-3.79h0ZM561.97,536.24c.16-1.03.87-1.66,1.88-1.66s1.74.63,1.78,1.66h-3.67ZM572.71,532.52c.46,0,.81-.35.81-.83s-.35-.84-.81-.84-.81.35-.81.84.35.83.81.83ZM568.15,533.75h-.84v1.04h.84v5.15h1.38v-5.15h1.68v-1.04h-1.68v-.75c0-.63.37-.86.87-.86.34,0,.74.11,1.11.28l.05-1.21c-.34-.19-.76-.29-1.19-.29-1.07,0-2.21.68-2.21,2.21v.62h0ZM572.03,533.52v6.42h1.37v-6.42h-1.37ZM578.87,533.47c-1.09,0-1.91.39-2.36,1.28v-1.23h-1.39v6.42h1.39v-3.41c.1-1,.76-1.74,1.82-1.75.96,0,1.54.59,1.54,1.56v3.61h1.39v-3.99c0-1.53-.89-2.47-2.39-2.47h0ZM585.42,533.47c-1.91.01-3.24,1.33-3.24,3.27s1.3,3.24,3.28,3.24c1.11,0,2.03-.4,2.65-1.09l-.74-.78c-.47.48-1.11.75-1.81.75-1.01,0-1.77-.62-1.99-1.6h4.85c.17-2.32-.75-3.79-3-3.79h0ZM583.55,536.24c.16-1.03.87-1.66,1.88-1.66s1.74.63,1.78,1.66h-3.67ZM595.65,530.98h-1.39v3.64c-.47-.75-1.24-1.17-2.28-1.17-1.81,0-3.05,1.31-3.05,3.24s1.23,3.29,3.08,3.29c1.03,0,1.8-.41,2.26-1.16v1.1h1.39v-8.95h0ZM592.29,538.84c-1.17,0-1.97-.87-1.98-2.09.01-1.23.82-2.11,1.98-2.11s1.97.87,1.97,2.11-.81,2.09-1.97,2.09ZM604.22,533.47c-1,0-1.77.41-2.24,1.16v-3.64h-1.39v8.95h1.39v-1.11c.47.75,1.24,1.16,2.27,1.16,1.83,0,3.04-1.31,3.04-3.23s-1.24-3.28-3.06-3.28h0ZM603.93,538.8c-1.15,0-1.95-.86-1.95-2.1s.81-2.07,1.95-2.07,1.95.88,1.95,2.07-.81,2.1-1.95,2.1ZM613.6,533.52h-1.39l-1.79,4.86-1.92-4.86h-1.44l2.65,6.32-.22.48c-.22.48-.55.71-.98.71-.29,0-.53-.1-.83-.31l-.59,1.07c.45.37.9.54,1.48.54.97,0,1.69-.51,2.09-1.52l2.92-7.3h0ZM632.78,533.52h-1.39v3.16c0,1.12-.65,1.98-1.76,2-.93,0-1.5-.59-1.5-1.56v-3.61h-1.39v3.99c0,1.53.88,2.47,2.35,2.47,1.05-.01,1.86-.41,2.29-1.3v1.25h1.39v-6.42h0ZM638.34,539.93h1.36v-4.21c-.02-1.41-.95-2.26-2.61-2.26-1.22,0-1.87.28-2.76.81l.57.97c.64-.43,1.28-.65,1.89-.65,1.02,0,1.53.48,1.53,1.29v.19h-1.94c-1.54.01-2.42.76-2.42,1.93s.87,1.99,2.26,1.99c.93,0,1.67-.28,2.12-.84v.78h0ZM636.51,538.9c-.77,0-1.24-.37-1.24-.95,0-.62.42-.86,1.33-.86h1.74v.59c-.07.7-.83,1.22-1.82,1.22h0ZM642.67,539.93v-8.95h-1.39v8.95h1.39ZM645.13,530.84c-.46,0-.81.35-.81.84s.35.83.81.83.81-.35.81-.83-.35-.84-.81-.84ZM645.82,539.93v-6.42h-1.38v6.42h1.38ZM650.81,538.46c-.37.18-.68.28-.96.28-.43,0-.69-.2-.69-.87v-3.08h1.89v-1.04h-1.89v-1.76h-1.38v1.76h-.9v1.04h.9v3.33c0,1.31.83,1.87,1.8,1.87.54,0,1.07-.17,1.58-.47l-.35-1.06h0ZM657.55,533.52h-1.39l-1.79,4.86-1.92-4.86h-1.44l2.65,6.32-.22.48c-.22.48-.55.71-.98.71-.29,0-.53-.1-.83-.31l-.59,1.07c.45.37.9.54,1.48.54.97,0,1.69-.51,2.09-1.52l2.92-7.3h0ZM625.6,539.86c-.55.43-1.11.7-1.56.7-.48,0-.95-.29-1.41-.78,1.8-.55,3.04-2.13,3.04-4.06,0-2.41-1.95-4.26-4.47-4.26s-4.47,1.83-4.47,4.26,1.94,4.27,4.46,4.28c.68,1.13,1.63,1.8,2.69,1.8.78,0,1.64-.35,2.29-.93l-.57-1h0ZM618.17,535.71c0-1.68,1.38-2.98,3.04-2.98s3,1.3,3,2.98-1.35,3-3,3-3.04-1.33-3.04-3Z"/>
      <path class="cls-3" d="M475.04,525.74h-7.03v-2.02c-1.59,1.04-3.26,1.83-5.01,2.37-1.75.54-3.63.81-5.63.81-4.89,0-9.05-1.57-12.47-4.7-3.42-3.14-5.14-6.92-5.14-11.35s1.71-8.15,5.14-11.29c3.42-3.13,7.58-4.7,12.47-4.7,3.91,0,7.46,1.06,10.64,3.18v-2.02h7.03v29.72h0ZM468.01,510.85c0-2.64-1.04-4.89-3.12-6.77-2.08-1.86-4.59-2.8-7.52-2.8s-5.38.94-7.46,2.8c-2.08,1.88-3.12,4.13-3.12,6.77s1.02,4.95,3.06,6.83c2.04,1.86,4.55,2.8,7.52,2.8s5.44-.94,7.52-2.8c2.08-1.88,3.12-4.15,3.12-6.83Z"/>
      <path class="cls-3" d="M511.57,525.74h-7.03v-2.02c-1.59,1.04-3.26,1.83-5.01,2.37-1.75.54-3.63.81-5.63.81-4.89,0-9.05-1.57-12.47-4.7-3.42-3.14-5.14-6.92-5.14-11.35s1.71-8.15,5.14-11.29c3.42-3.13,7.58-4.7,12.47-4.7,3.91,0,7.46,1.06,10.64,3.18v-2.02h7.03v29.72h0ZM504.54,510.85c0-2.64-1.04-4.89-3.12-6.77-2.08-1.86-4.59-2.8-7.52-2.8s-5.38.94-7.46,2.8c-2.08,1.88-3.12,4.13-3.12,6.77s1.02,4.95,3.06,6.83c2.04,1.86,4.55,2.8,7.52,2.8s5.44-.94,7.52-2.8c2.08-1.88,3.12-4.15,3.12-6.83Z"/>
      <path class="cls-3" d="M621.15,525.74h-7.03v-2.02c-1.59,1.04-3.26,1.83-5.01,2.37-1.75.54-3.63.81-5.63.81-4.89,0-9.05-1.57-12.47-4.7-3.42-3.14-5.14-6.92-5.14-11.35s1.71-8.15,5.14-11.29c3.42-3.13,7.58-4.7,12.47-4.7,3.91,0,7.46,1.06,10.64,3.18v-2.02h7.03v29.72h0ZM614.12,510.85c0-2.64-1.04-4.89-3.12-6.77-2.08-1.86-4.59-2.8-7.52-2.8s-5.38.94-7.46,2.8c-2.08,1.88-3.12,4.13-3.12,6.77s1.02,4.95,3.06,6.83c2.04,1.86,4.55,2.8,7.52,2.8s5.44-.94,7.52-2.8c2.08-1.88,3.12-4.15,3.12-6.83Z"/>
      <path class="cls-3" d="M657.55,525.74h-7.03v-2.02c-1.59,1.04-3.26,1.83-5.01,2.37-1.75.54-3.63.81-5.63.81-4.89,0-9.05-1.57-12.47-4.7-3.42-3.14-5.14-6.92-5.14-11.35s1.71-8.15,5.14-11.29c3.42-3.13,7.58-4.7,12.47-4.7,3.91,0,7.46,1.06,10.64,3.18v-2.02h7.03v29.72h0ZM650.52,510.85c0-2.64-1.04-4.89-3.12-6.77-2.08-1.86-4.59-2.8-7.52-2.8s-5.38.94-7.46,2.8c-2.08,1.88-3.12,4.13-3.12,6.77s1.02,4.95,3.06,6.83c2.04,1.86,4.55,2.8,7.52,2.8s5.44-.94,7.52-2.8c2.08-1.88,3.12-4.15,3.12-6.83Z"/>
      <polygon class="cls-1" points="516.39 525.59 524.86 525.59 534.62 513.48 535.9 506.72 530.54 508.1 521.34 495.99 512.87 495.99 524.44 511.25 527.94 511.25 516.39 525.59"/>
      <polygon class="cls-1" points="584.6 495.99 576.13 495.99 566.37 508.1 567.36 514.27 570.45 513.48 579.64 525.59 588.11 525.59 576.54 510.33 573.04 510.33 584.6 495.99"/>
      <polygon class="cls-2" points="552.22 525.59 560.69 525.59 570.45 513.48 557.17 495.99 548.7 495.99 560.27 511.25 563.77 511.25 552.22 525.59"/>
      <path class="cls-3" d="M661.96,491.85v4.19h-1.16v-4.19h-1.47v-1h4.1v1h-1.47ZM668.72,492.77l-1.4,2.84h-.69l-1.4-2.84v3.27h-1.16v-5.2h1.57l1.34,2.85,1.35-2.85h1.56v5.2h-1.16v-3.27h0Z"/>
      <polygon class="cls-2" points="548.77 495.99 540.3 495.99 530.54 508.1 543.81 525.59 552.28 525.59 540.71 510.33 537.21 510.33 548.77 495.99"/>
    </g>
  </g>
</svg>